<svg width="161" height="171" viewBox="0 0 161 171" fill="none" xmlns="http://www.w3.org/2000/svg">
<path d="M16.5 170.5L0 161V67.5L57.5 34H103.5L160.5 67.5V161L145 170.5H82H16.5Z" fill="#071E39"/>
<path d="M16.5 170.5L0 161V67.5L57.5 34H103.5L160.5 67.5V161L145 170.5H82H16.5Z" fill="url(#paint0_linear)" fill-opacity="0.6"/>
<circle cx="34" cy="62" r="1" fill="#F4F4F4"/>
<circle cx="147.5" cy="148.5" r="0.5" fill="#F4F4F4"/>
<circle cx="125" cy="134" r="1" fill="#F4F4F4"/>
<circle cx="115.5" cy="66.5" r="0.5" fill="#F4F4F4"/>
<circle cx="140.5" cy="78.5" r="0.5" fill="#F4F4F4"/>
<circle cx="18.5" cy="132.5" r="0.5" fill="#F4F4F4"/>
<circle cx="12" cy="108" r="1" fill="#F4F4F4"/>
<circle cx="19.5" cy="79.5" r="0.5" fill="#F4F4F4"/>
<circle cx="42.5" cy="118.5" r="1.5" fill="#F4F4F4"/>
<circle cx="144.5" cy="99.5" r="1.5" fill="#F4F4F4"/>
<path d="M27.5 169C21.1 165.4 17.6667 168.333 16.5 170.5H145C142.2 161.7 130.5 160.333 126 161.5C124.8 148.7 114.167 146.5 109 147C108.2 133.8 98.6667 133.833 94 135.5C93.2 131.9 90.3333 129 89 128C83.6667 128.333 72.5 129.2 70.5 130C68.5 130.8 66.3333 136 65.5 138.5C48.3 132.9 43 146.167 42.5 153.5C27.7 151.9 26.3333 163.167 27.5 169Z" fill="#F4F4F4"/>
<path d="M42.5 168.5C45.3333 164.833 52.9 159.7 60.5 168.5" stroke="#1C3D65" stroke-width="2"/>
<path d="M95.5 166.859C98.3333 163.192 105.9 158.059 113.5 166.859" stroke="#1C3D65" stroke-width="2"/>
<path d="M80.5 152.859C83.3333 149.192 90.9 144.059 98.5 152.859" stroke="#1C3D65" stroke-width="2"/>
<path d="M56.5 157.859C59.3333 154.192 66.9 149.059 74.5 157.859" stroke="#1C3D65" stroke-width="2"/>
<path fill-rule="evenodd" clip-rule="evenodd" d="M104.95 64.7824L105 64.5C104.924 64.5 104.909 64.5972 104.95 64.7824Z" fill="#BC341E"/>
<path d="M80 0C75.3475 2.59321 69.2962 8.36266 63.98 17.5H95.1587C91.5421 11.3161 86.2687 5.29594 80 0Z" fill="#BC341E"/>
<path d="M125 107C125 89 111 72.5 104.95 64.7824C103.25 74.4257 99.0128 95.9096 95.25 107H125Z" fill="#BC341E"/>
<path d="M55.5 64.5C47.5 75.8333 35.5 89 35.5 107H65.5C61.1 97.8 57 74.8333 55.5 64.5Z" fill="#BC341E"/>
<path d="M63.98 17.5C57.6793 28.3295 53.1136 43.8898 55.5 64.5C57 74.8333 61.1 97.8 65.5 107H95.25C99.0128 95.9096 103.25 74.4257 104.95 64.7824C104.909 64.5972 104.924 64.5 105 64.5C106.176 64.5 108.273 39.9239 95.1587 17.5H63.98Z" fill="#BC341E"/>
<path d="M66.258 107C46.8845 63.4 55.5 29 63.6953 18H95.4526C115.5 44 102.079 88.5 94.5109 107H66.258Z" fill="#DBCBCB"/>
<path d="M66.258 107C46.8845 63.4 55.5 29 63.6953 18H95.4526C115.5 44 102.079 88.5 94.5109 107H66.258Z" fill="url(#paint1_linear)"/>
<path d="M69 113L66.2592 107H94.5L91.5 113H69Z" fill="#1C3D65"/>
<path d="M69.5 124L69 113H91.5L91 124C91 131.436 82.6449 137.561 80.0655 139.452L80 139.5C73.2 134.7 70 130 69.5 124Z" fill="#D37A16"/>
<path d="M80 134.5C72.4 129.7 71.5 119.5 72 115H88C88 129 82.6667 133.833 80 134.5Z" fill="#F2D972"/>
<circle cx="79.5" cy="39.5" r="13.5" fill="#1C3D65"/>
<circle cx="79.5" cy="39.5" r="10.5" fill="#71BDE8"/>
<path d="M16.5 170.5L0 161V67.5L57.5 34H103.5L160.5 67.5V161L145 170.5H82H16.5Z" fill="#071E39"/>
<path d="M16.5 170.5L0 161V67.5L57.5 34H103.5L160.5 67.5V161L145 170.5H82H16.5Z" fill="url(#paint2_linear)" fill-opacity="0.6"/>
<circle cx="34" cy="62" r="1" fill="#F4F4F4"/>
<circle cx="147.5" cy="148.5" r="0.5" fill="#F4F4F4"/>
<circle cx="125" cy="134" r="1" fill="#F4F4F4"/>
<circle cx="115.5" cy="66.5" r="0.5" fill="#F4F4F4"/>
<circle cx="140.5" cy="78.5" r="0.5" fill="#F4F4F4"/>
<circle cx="18.5" cy="132.5" r="0.5" fill="#F4F4F4"/>
<circle cx="12" cy="108" r="1" fill="#F4F4F4"/>
<circle cx="19.5" cy="79.5" r="0.5" fill="#F4F4F4"/>
<circle cx="42.5" cy="118.5" r="1.5" fill="#F4F4F4"/>
<circle cx="144.5" cy="99.5" r="1.5" fill="#F4F4F4"/>
<path d="M27.5 169C21.1 165.4 17.6667 168.333 16.5 170.5H145C142.2 161.7 130.5 160.333 126 161.5C124.8 148.7 114.167 146.5 109 147C108.2 133.8 98.6667 133.833 94 135.5C93.2 131.9 90.3333 129 89 128C83.6667 128.333 72.5 129.2 70.5 130C68.5 130.8 66.3333 136 65.5 138.5C48.3 132.9 43 146.167 42.5 153.5C27.7 151.9 26.3333 163.167 27.5 169Z" fill="#F4F4F4"/>
<path d="M42.5 168.5C45.3333 164.833 52.9 159.7 60.5 168.5" stroke="#1C3D65" stroke-width="2"/>
<path d="M95.5 166.859C98.3333 163.192 105.9 158.059 113.5 166.859" stroke="#1C3D65" stroke-width="2"/>
<path d="M80.5 152.859C83.3333 149.192 90.9 144.059 98.5 152.859" stroke="#1C3D65" stroke-width="2"/>
<path d="M56.5 157.859C59.3333 154.192 66.9 149.059 74.5 157.859" stroke="#1C3D65" stroke-width="2"/>
<path fill-rule="evenodd" clip-rule="evenodd" d="M104.95 64.7824L105 64.5C104.924 64.5 104.909 64.5972 104.95 64.7824Z" fill="#BC341E"/>
<path d="M80 0C75.3475 2.59321 69.2962 8.36266 63.98 17.5H95.1587C91.5421 11.3161 86.2687 5.29594 80 0Z" fill="#BC341E"/>
<path d="M125 107C125 89 111 72.5 104.95 64.7824C103.25 74.4257 99.0128 95.9096 95.25 107H125Z" fill="#BC341E"/>
<path d="M55.5 64.5C47.5 75.8333 35.5 89 35.5 107H65.5C61.1 97.8 57 74.8333 55.5 64.5Z" fill="#BC341E"/>
<path d="M63.98 17.5C57.6793 28.3295 53.1136 43.8898 55.5 64.5C57 74.8333 61.1 97.8 65.5 107H95.25C99.0128 95.9096 103.25 74.4257 104.95 64.7824C104.909 64.5972 104.924 64.5 105 64.5C106.176 64.5 108.273 39.9239 95.1587 17.5H63.98Z" fill="#BC341E"/>
<path d="M66.258 107C46.8845 63.4 55.5 29 63.6953 18H95.4526C115.5 44 102.079 88.5 94.5109 107H66.258Z" fill="#DBCBCB"/>
<path d="M66.258 107C46.8845 63.4 55.5 29 63.6953 18H95.4526C115.5 44 102.079 88.5 94.5109 107H66.258Z" fill="url(#paint3_linear)"/>
<path d="M69 113L66.2592 107H94.5L91.5 113H69Z" fill="#1C3D65"/>
<path d="M69.5 124L69 113H91.5L91 124C91 131.436 82.6449 137.561 80.0655 139.452L80 139.5C73.2 134.7 70 130 69.5 124Z" fill="#D37A16"/>
<path d="M80 134.5C72.4 129.7 71.5 119.5 72 115H88C88 129 82.6667 133.833 80 134.5Z" fill="#F2D972"/>
<circle cx="79.5" cy="39.5" r="13.5" fill="#1C3D65"/>
<circle cx="79.5" cy="39.5" r="10.5" fill="#71BDE8"/>
<defs>
<linearGradient id="paint0_linear" x1="80.25" y1="34" x2="80.25" y2="170.5" gradientUnits="userSpaceOnUse">
<stop stop-color="#395679"/>
<stop offset="1" stop-color="white" stop-opacity="0"/>
</linearGradient>
<linearGradient id="paint1_linear" x1="80" y1="18" x2="80" y2="107" gradientUnits="userSpaceOnUse">
<stop stop-color="#F5F5F5"/>
<stop offset="1" stop-color="white" stop-opacity="0"/>
</linearGradient>
<linearGradient id="paint2_linear" x1="80.25" y1="34" x2="80.25" y2="170.5" gradientUnits="userSpaceOnUse">
<stop stop-color="#395679"/>
<stop offset="1" stop-color="white" stop-opacity="0"/>
</linearGradient>
<linearGradient id="paint3_linear" x1="80" y1="18" x2="80" y2="107" gradientUnits="userSpaceOnUse">
<stop stop-color="#F5F5F5"/>
<stop offset="1" stop-color="white" stop-opacity="0"/>
</linearGradient>
</defs>
</svg>
